<svg width="192" height="192" viewBox="0 0 192 192" fill="none" xmlns="http://www.w3.org/2000/svg">
  <rect width="192" height="192" rx="42" fill="url(#background)"/>
  <path d="M96 48C96 48 64 72 64 108C64 126.225 78.775 141 97 141C115.225 141 130 126.225 130 108C130 72 96 48 96 48Z" fill="url(#droplet)"/>
  <ellipse cx="88" cy="85" rx="12" ry="18" fill="url(#highlight)" opacity="0.6"/>
  <circle cx="120" cy="75" r="4" fill="url(#smallDrop)" opacity="0.8"/>
  <circle cx="75" cy="65" r="3" fill="url(#smallDrop)" opacity="0.6"/>
  <circle cx="115" cy="120" r="2.5" fill="url(#smallDrop)" opacity="0.7"/>
  <circle cx="96" cy="135" rx="20" ry="8" fill="none" stroke="url(#ripple)" stroke-width="2" opacity="0.3"/>
  <circle cx="96" cy="137" rx="14" ry="6" fill="none" stroke="url(#ripple)" stroke-width="1.5" opacity="0.2"/>
  <defs>
    <linearGradient id="background" x1="0" y1="0" x2="192" y2="192" gradientUnits="userSpaceOnUse">
      <stop stop-color="#E0F2FE"/>
      <stop offset="0.5" stop-color="#BAE6FD"/>
      <stop offset="1" stop-color="#7DD3FC"/>
    </linearGradient>
    <linearGradient id="droplet" x1="64" y1="48" x2="130" y2="141" gradientUnits="userSpaceOnUse">
      <stop stop-color="#0EA5E9"/>
      <stop offset="0.3" stop-color="#0284C7"/>
      <stop offset="0.7" stop-color="#0369A1"/>
      <stop offset="1" stop-color="#1E40AF"/>
    </linearGradient>
    <radialGradient id="highlight" cx="88" cy="85" r="20" gradientUnits="userSpaceOnUse">
      <stop stop-color="#FFFFFF" stop-opacity="0.9"/>
      <stop offset="0.6" stop-color="#FFFFFF" stop-opacity="0.3"/>
      <stop offset="1" stop-color="#FFFFFF" stop-opacity="0"/>
    </radialGradient>
    <radialGradient id="smallDrop" cx="0.5" cy="0.3" gradientUnits="objectBoundingBox">
      <stop stop-color="#38BDF8"/>
      <stop offset="1" stop-color="#0284C7"/>
    </radialGradient>
    <linearGradient id="ripple" x1="0" y1="0" x2="1" y2="0" gradientUnits="objectBoundingBox">
      <stop stop-color="#0EA5E9" stop-opacity="0.6"/>
      <stop offset="0.5" stop-color="#38BDF8" stop-opacity="0.8"/>
      <stop offset="1" stop-color="#0EA5E9" stop-opacity="0.6"/>
    </linearGradient>
  </defs>
</svg>
